# xmcd
#
# Track frame offsets:
#	150
#	25637
#	40795
#	56650
#	69255
#	93177
#	104832
#	115845
#	134687
#	153207
#	171285
#	183622
#	202002
#	220110
#	235702
#	251707
#	272392
#	290235
#
# Disc length: 4023 seconds
#
# Revision: 0
# Processed by: cddbd v1.5.2PL0 Copyright (c) Steve Scherf et al.
# Submitted via: EasyCDDAExtractor 16.0.8.2
#
DISCID=080fb512
DTITLE=Συλλογικός δίσκος - Τα τραγούδια της Λέρος 2
DYEAR=1998
DGENRE=Παραδοσιακή
TTITLE0=Μπάκας Γιάγκος - Γιάλα
TTITLE1=Πλατής Γιάννης ή Γουμενί - Του Γιαννουκά
TTITLE2=Άνευ ερμηνευτού - Λέρικα σταυρωτά [οργανικό]
TTITLE3=Άνευ ερμηνευτού - Σούστα [οργανικό]
TTITLE4=Μπάκας Γιάγκος - Του Καντούνη
TTITLE5=Ταχλιαμπούρη Αγγελική - Μέσ' στα πετρωτά
TTITLE6=Άνευ ερμηνευτού - Ροδίτικο [οργανικό]
TTITLE7=Μπάκας Γιάγκος - Μαχαίρι μαυρομάνικο
TTITLE8=Ήσυχος Σταυρής - Ξένος εδώ, ξένος εκεί
TTITLE9=Ταχλιαμπούρη Αγγελική - Το έρι του Σκουμπουρδή
TTITLE10=Βασιλικός Ν.-Καστής Μ-Νταλλαρής Ν. και Α. - Ακριτικό
TTITLE11=Ταχλιαμπούρη Αγγελική - Νανούρισμα
TTITLE12=Ήσυχος Σταυρής - Του Νισύριου
TTITLE13=Άνευ ερμηνευτού - Σούστα Λέρου [οργανικό]
TTITLE14=Βασιλικός Ν.-Καστής Μ-Νταλλαρής Ν. και Α. - Του γαμπρού
TTITLE15=Λίνδος Δημήτρης - Αποκριάτικο
TTITLE16=Κουτούζος Γ. ή Χέχας - Καλύμνικος σκοπός
TTITLE17=Σκουμπουρδής Μανώλης - Παρηγόρησε κι εμέ
EXTD=
EXTT0=
EXTT1=
EXTT2=
EXTT3=
EXTT4=
EXTT5=
EXTT6=
EXTT7=
EXTT8=
EXTT9=
EXTT10=
EXTT11=
EXTT12=
EXTT13=
EXTT14=
EXTT15=
EXTT16=
EXTT17=
PLAYORDER=
